<?xml version="1.0" encoding="UTF-8"?>
<svg id="Layer_1" xmlns="http://www.w3.org/2000/svg" version="1.1" viewBox="0 0 26 26">
  <!-- Generator: Adobe Illustrator 29.1.0, SVG Export Plug-In . SVG Version: 2.1.0 Build 142)  -->
  <defs>
    <style>
      .st0 {
        stroke: #f7f4f5;
        stroke-miterlimit: 4;
        stroke-width: 1px;
      }

      .st0, .st1 {
        fill: none;
      }

      .st1 {
        stroke: #fff;
        stroke-linecap: round;
        stroke-linejoin: round;
      }

      .st2 {
        fill: #2e4da1;
      }
    </style>
  </defs>
  <path class="st2" d="M24.5,13.2h0c-.1,6.4-5.3,11.4-11.7,11.3h0c-6.4-.1-11.4-5.3-11.3-11.7h0C1.6,6.4,6.9,1.4,13.2,1.5h0c6.4.1,11.4,5.3,11.3,11.7Z"/>
  <path class="st0" d="M24.5,13.2h0c-.1,6.4-5.3,11.4-11.7,11.3h0c-6.4-.1-11.4-5.3-11.3-11.7h0C1.6,6.4,6.9,1.4,13.2,1.5h0c6.4.1,11.4,5.3,11.3,11.7Z"/>
  <path class="st1" d="M18.7,7.5l-11.3,4.6,4.8,1.7,1.5,4.8,5-11.1Z"/>
</svg>