<svg width="22" height="18" viewBox="0 0 22 18" fill="none" xmlns="http://www.w3.org/2000/svg">
<path d="M10.3334 3.66667H21M10.3334 14.3333H21M3.00002 1H5.66669C6.40307 1 7.00002 1.59695 7.00002 2.33333V5C7.00002 5.73638 6.40307 6.33333 5.66669 6.33333H3.00002C2.26364 6.33333 1.66669 5.73638 1.66669 5V2.33333C1.66669 1.59695 2.26364 1 3.00002 1ZM3.00002 11.6667H5.66669C6.40307 11.6667 7.00002 12.2636 7.00002 13V15.6667C7.00002 16.403 6.40307 17 5.66669 17H3.00002C2.26364 17 1.66669 16.403 1.66669 15.6667V13C1.66669 12.2636 2.26364 11.6667 3.00002 11.6667Z" stroke="#1F46AE" stroke-width="2" stroke-linecap="round" stroke-linejoin="round"/>
</svg>
