<?xml version="1.0" encoding="UTF-8"?>
<svg id="Layer_1" xmlns="http://www.w3.org/2000/svg" version="1.1" viewBox="0 0 24 24">
  <!-- Generator: Adobe Illustrator 29.1.0, SVG Export Plug-In . SVG Version: 2.1.0 Build 142)  -->
  <defs>
    <style>
      .st0 {
        stroke: #f7f4f5;
      }

      .st0, .st1 {
        fill: none;
      }

      .st1 {
        stroke: #fff;
        stroke-linecap: round;
        stroke-linejoin: round;
      }

      .st2 {
        fill: #2e4da1;
      }
    </style>
  </defs>
  <path class="st2" d="M12,.5h0c6.4,0,11.5,5.1,11.5,11.5h0c0,6.4-5.1,11.5-11.5,11.5h0C5.6,23.5.5,18.4.5,12h0C.5,5.6,5.6.5,12,.5Z"/>
  <path class="st0" d="M12,.5h0c6.4,0,11.5,5.1,11.5,11.5h0c0,6.4-5.1,11.5-11.5,11.5h0C5.6,23.5.5,18.4.5,12h0C.5,5.6,5.6.5,12,.5Z"/>
  <path class="st1" d="M9.8,6.4h-1.8c-.9,0-1.6.7-1.6,1.6v1.6c0,4.4,3.6,8,8,8h1.6c.9,0,1.6-.7,1.6-1.6v-1.1c0-.3-.2-.6-.4-.7l-1.9-1c-.4-.2-1,0-1.1.5l-.2.7c-.2.5-.6.7-1.1.6-1.9-.4-3.4-1.9-3.8-3.8,0-.5.2-1,.6-1.1l.9-.3c.4-.1.6-.5.5-1l-.5-1.9c0-.4-.4-.6-.8-.6Z"/>
</svg>