<svg width="25" height="23" viewBox="0 0 25 23" fill="none" xmlns="http://www.w3.org/2000/svg">
<path fill-rule="evenodd" clip-rule="evenodd" d="M20.6759 6.45938L17.3047 12.7623L20.5698 13.0888L19.801 18.2779C17.2273 21.7098 12.7614 23.4549 8.33787 22.3527C2.44614 20.8832 -1.14092 14.915 0.329726 9.02211C1.7981 3.1281 7.76627 -0.457828 13.658 1.01054C16.7825 1.78954 19.258 3.83306 20.6759 6.45938Z" fill="#F7941E"/>
<path d="M13.465 10.0933C13.1239 11.4567 11.0246 10.7642 10.3435 10.5942L10.9447 8.18457C11.6259 8.35457 13.8199 8.67175 13.4662 10.0933M13.0931 13.9816C12.72 15.4796 10.1963 14.6707 9.37825 14.4676L10.0411 11.8104C10.8592 12.0147 13.4822 12.4185 13.0931 13.9816ZM15.8507 10.115C16.0698 8.65121 14.9551 7.86512 13.4308 7.33915L13.926 5.35622L12.7189 5.05502L12.2374 6.98546C11.9202 6.90674 11.5939 6.83258 11.271 6.75842L11.7548 4.81543L10.5488 4.51422L10.0537 6.49715C9.79127 6.43668 9.53342 6.37849 9.28355 6.31574V6.30889L7.62009 5.8936L7.29835 7.18284C7.29835 7.18284 8.19397 7.38821 8.17458 7.40076C8.66403 7.52284 8.75188 7.84572 8.73705 8.10243L8.17343 10.3603C8.20766 10.3694 8.25102 10.382 8.29894 10.4002C8.259 10.3911 8.21565 10.3797 8.17115 10.3683L7.38163 13.5321C7.3223 13.6804 7.17056 13.9029 6.82828 13.8196C6.83969 13.8367 5.95091 13.6005 5.95091 13.6005L5.35193 14.9833L6.92298 15.3747C7.21506 15.4477 7.50143 15.5241 7.78324 15.596L7.28351 17.6018L8.48947 17.903L8.98349 15.9178C9.31322 16.0079 9.63268 16.09 9.94529 16.1676L9.45241 18.1414L10.6595 18.4426L11.1592 16.4414C13.2175 16.8305 14.7646 16.673 15.416 14.8122C15.9408 13.3142 15.3898 12.4493 14.307 11.8846C15.0954 11.702 15.6898 11.1841 15.8484 10.1116" fill="white"/>
<path d="M23.5299 1.53247L18.2262 12.3146L20.9893 12.7237L19.5528 21.9596L24.7929 11.1297L21.9041 10.6399L23.5299 1.53247Z" fill="#FFCA05"/>
</svg>
