<svg width="24" height="24" viewBox="0 0 24 24" fill="none" xmlns="http://www.w3.org/2000/svg">
<rect x="0.5" y="0.5" width="23" height="23" rx="11.5" fill="#C85263"/>
<rect x="0.5" y="0.5" width="23" height="23" rx="11.5" stroke="#F7F4F5"/>
<path d="M6.75 10.125H17.25M6.75 13.8H17.25M17.55 11.9625C17.55 15.0484 15.0484 17.55 11.9625 17.55C8.87661 17.55 6.375 15.0484 6.375 11.9625C6.375 8.87661 8.87661 6.375 11.9625 6.375C15.0484 6.375 17.55 8.87661 17.55 11.9625ZM14.625 12C14.625 14.8995 13.4497 17.25 12 17.25C10.5503 17.25 9.375 14.8995 9.375 12C9.375 9.1005 10.5503 6.75 12 6.75C13.4497 6.75 14.625 9.1005 14.625 12Z" stroke="white" stroke-linecap="round" stroke-linejoin="round"/>
</svg>
