<svg width="17" height="15" viewBox="0 0 17 15" fill="none" xmlns="http://www.w3.org/2000/svg">
<path d="M7.46654 3.23331H15.9999M7.46654 11.7666H15.9999M1.59987 1.09998H3.7332C4.32231 1.09998 4.79987 1.57754 4.79987 2.16664V4.29998C4.79987 4.88908 4.32231 5.36664 3.7332 5.36664H1.59987C1.01077 5.36664 0.533203 4.88908 0.533203 4.29998V2.16664C0.533203 1.57754 1.01077 1.09998 1.59987 1.09998ZM1.59987 9.63331H3.7332C4.32231 9.63331 4.79987 10.1109 4.79987 10.7V12.8333C4.79987 13.4224 4.32231 13.9 3.7332 13.9H1.59987C1.01077 13.9 0.533203 13.4224 0.533203 12.8333V10.7C0.533203 10.1109 1.01077 9.63331 1.59987 9.63331Z" stroke="#C85263" stroke-linecap="round" stroke-linejoin="round"/>
</svg>
