<svg width="23" height="23" viewBox="0 0 23 23" fill="none" xmlns="http://www.w3.org/2000/svg">
<ellipse cx="11.7578" cy="11.735" rx="10.3925" ry="10.3898" fill="white"/>
<path d="M14.1366 13.4918L13.738 14.5455H14.5015L14.1366 13.4918Z" fill="#C95263"/>
<path d="M12.8287 20.9333V19.4819C16.2811 19.0112 19.0486 16.3215 19.5932 12.8752H21.0471C20.5026 17.0836 17.1175 20.4234 12.8287 20.9333ZM13.6988 12.4774H14.5689L16.0229 15.9628H15.0068L14.7542 15.3072H13.5192L13.2666 15.9628H12.2842L13.7044 12.4774H13.6988ZM13.3339 7.28837L14.0974 9.61389L14.8608 7.28837H15.8769L14.5296 10.7738H13.6595L12.3515 7.28837H13.3339ZM12.8231 2.42438C17.1512 2.89509 20.6036 6.38057 21.0415 10.701H19.5876C19.1497 7.14267 16.3541 4.31282 12.7894 3.84211V2.42438H12.8231ZM10.6787 3.87573C7.15326 4.38567 4.38572 7.17629 3.95347 10.701H2.49953C2.97108 6.38057 6.38981 2.93432 10.6787 2.42438V3.87573ZM7.95041 12.8752C8.13004 12.7295 8.3153 12.5838 8.56791 12.511C8.78684 12.4381 9.03946 12.3653 9.29769 12.3653C9.55592 12.3653 9.84222 12.3989 10.0611 12.4718C10.2801 12.5446 10.499 12.6511 10.645 12.7968L10.6787 12.8304L10.0948 13.486L10.0611 13.4524C9.98817 13.3796 9.88151 13.3067 9.76924 13.2339C9.66258 13.161 9.51662 13.161 9.33137 13.161C9.18542 13.161 9.07876 13.1946 8.96648 13.2339C8.85982 13.2675 8.74755 13.3403 8.67457 13.4524C8.60159 13.5252 8.52862 13.6317 8.49493 13.7774C8.46125 13.8839 8.42196 14.0296 8.42196 14.1753C8.42196 14.321 8.45564 14.4667 8.49493 14.5731C8.52862 14.6796 8.60159 14.7917 8.67457 14.8981C8.74755 14.971 8.85421 15.0438 8.96648 15.1167C9.07314 15.1503 9.2191 15.1895 9.40435 15.1895C9.51101 15.1895 9.58399 15.1895 9.65696 15.1559C9.72994 15.1559 9.80292 15.1223 9.8366 15.1223V14.5787H9.1798V13.8166H10.673V15.7051H10.6394C10.4597 15.7779 10.2745 15.8508 10.0555 15.9236C9.8366 15.9965 9.58399 15.9965 9.32576 15.9965C9.03385 15.9965 8.78123 15.9628 8.5623 15.8508C8.34336 15.7779 8.12443 15.6322 7.94479 15.4865C7.76516 15.3408 7.65288 15.1223 7.54622 14.9037C7.43956 14.6852 7.40027 14.433 7.40027 14.1417C7.40027 13.8503 7.43395 13.5981 7.54622 13.3796C7.65288 13.2339 7.76516 13.0153 7.94479 12.8696L7.95041 12.8752ZM10.4934 9.97252V10.7682H7.80445V7.28276H8.71387V9.96692H10.4934V9.97252ZM10.673 20.8997C6.45717 20.3897 3.07212 17.05 2.52759 12.8808H3.98154C4.49238 16.2935 7.21502 19.0168 10.673 19.4876V20.9053V20.8997ZM11.8126 0.681641C5.73862 0.681641 0.792969 5.61847 0.792969 11.6816C0.792969 17.7448 5.73862 22.6816 11.8126 22.6816C17.8866 22.6816 22.793 17.7448 22.793 11.6816C22.793 5.61847 17.881 0.681641 11.8126 0.681641Z" fill="#C95263"/>
</svg>
