<svg width="24" height="24" viewBox="0 0 24 24" fill="none" xmlns="http://www.w3.org/2000/svg">
<rect x="0.5" y="0.5" width="23" height="23" rx="11.5" fill="#C85263"/>
<rect x="0.5" y="0.5" width="23" height="23" rx="11.5" stroke="#F7F4F5"/>
<path d="M9.7754 6.40002H8.00002C7.11637 6.40002 6.40002 7.11637 6.40002 8.00002V9.60002C6.40002 14.0183 9.98175 17.6 14.4 17.6H16C16.8837 17.6 17.6 16.8837 17.6 16V14.8945C17.6 14.5914 17.4288 14.3144 17.1578 14.1789L15.2251 13.2125C14.7896 12.9948 14.2623 13.2132 14.1083 13.6751L13.8701 14.3897C13.7158 14.8526 13.241 15.1282 12.7625 15.0325C10.8475 14.6495 9.35054 13.1526 8.96753 11.2376C8.87184 10.7591 9.1474 10.2842 9.61031 10.1299L10.4972 9.83429C10.8938 9.7021 11.1217 9.28687 11.0203 8.88132L10.5515 7.006C10.4625 6.64986 10.1425 6.40002 9.7754 6.40002Z" stroke="white" stroke-linecap="round" stroke-linejoin="round"/>
</svg>
