<svg width="23" height="23" viewBox="0 0 23 23" fill="none" xmlns="http://www.w3.org/2000/svg">
<circle cx="11.793" cy="11.6816" r="11" fill="#009393"/>
<path fill-rule="evenodd" clip-rule="evenodd" d="M8.24551 6.18164H15.4876C15.6604 6.18164 15.82 6.27958 15.9062 6.43847L18.0161 10.3286C18.1256 10.5303 18.093 10.785 17.937 10.9485L12.1294 17.0361C11.9412 17.2333 11.6386 17.2333 11.4505 17.0361L5.65072 10.9568C5.49102 10.7894 5.46112 10.5273 5.57855 10.3243L7.83389 6.42599C7.92172 6.27417 8.07759 6.18164 8.24551 6.18164ZM14.5525 7.91844V9.00995H12.4895V9.76673C13.9384 9.84761 15.0255 10.1798 15.0336 10.5779L15.0335 11.4078C15.0255 11.806 13.9384 12.1381 12.4895 12.219V14.0762H11.1197V12.219C9.67079 12.1381 8.58374 11.806 8.57567 11.4078L8.57572 10.5779C8.58378 10.1798 9.67079 9.84761 11.1197 9.76673V9.00995H9.05671V7.91844H14.5525ZM11.8046 11.6488C13.3509 11.6488 14.6432 11.3679 14.9595 10.9929C14.6913 10.6748 13.7212 10.4245 12.4895 10.3557V11.1481C12.2688 11.1604 12.0396 11.1669 11.8046 11.1669C11.5696 11.1669 11.3404 11.1604 11.1197 11.1481V10.3557C9.88805 10.4245 8.91792 10.6748 8.64971 10.9929C8.96599 11.3679 10.2584 11.6488 11.8046 11.6488Z" fill="white"/>
</svg>
